<?xml version="1.0" encoding="UTF-8"?>
<!DOCTYPE svg PUBLIC "-//W3C//DTD SVG 1.1//EN" "http://www.w3.org/Graphics/SVG/1.1/DTD/svg11.dtd">
<!-- Creator: CorelDRAW -->
<svg xmlns="http://www.w3.org/2000/svg" xml:space="preserve" width="62px" height="62px" style="shape-rendering:geometricPrecision; text-rendering:geometricPrecision; image-rendering:optimizeQuality; fill-rule:evenodd; clip-rule:evenodd"
viewBox="0 0 2048 2048"
 xmlns:xlink="http://www.w3.org/1999/xlink">
 <defs>
  <style type="text/css">
   <![CDATA[
    .fil2 {fill:none}
    .fil0 {fill:#212121;fill-rule:nonzero}
    .fil1 {fill:#FC7341;fill-rule:nonzero}
   ]]>
  </style>
 </defs>
 <g id="Layer_x0020_1">
  <metadata id="CorelCorpID_0Corel-Layer"/>
  <g id="_475106448">
   <path id="_475107192" class="fil0" d="M1667.58 1022.46l73.3855 -610.916 -1433.93 0 73.3855 610.916 -48.3 0 -75.7961 -630.982c-0.211417,-1.28032 -0.322441,-2.5937 -0.322441,-3.93425 0,-13.2543 10.7457,-24 24,-24l1487.74 0c1.02874,-0.00944883 2.06929,0.0448819 3.11811,0.17126 13.1599,1.58032 22.5473,13.5307 20.9669,26.6906l-0.022441 -0.00236221 -75.9249 632.057 -48.3 0z"/>
   <path id="_475107096" class="fil0" d="M279.998 1022.46l1488 0c13.2543,0 24,10.7457 24,24l0 613.998c0,13.2543 -10.7457,24 -24,24l-1488 0c-13.2543,0 -24,-10.7457 -24,-24l0 -613.998c0,-13.2543 10.7457,-24 24,-24zm1464 48l-1440 0 0 565.998 1440 0 0 -565.998z"/>
   <path id="_475107264" class="fil0" d="M1577.73 820.455c10.2898,-4.84489 22.8851,-1.80591 29.7307,7.77757l-8.64686 6.17599c-6.75001,-5.11063 -13.7917,-9.76891 -21.0839,-13.9536z"/>
   <path id="_475107000" class="fil1" d="M1136.31 818.226l343.033 0c48.013,0 91.6465,19.6252 123.262,51.241 31.6158,31.6158 51.241,75.2493 51.241,123.262l0 5.73189 -48 0 0 -5.73189c0,-34.7622 -14.2394,-66.3851 -37.1788,-89.3245 -22.9394,-22.9394 -54.5622,-37.1788 -89.3245,-37.1788l-361.17 0c-11.3221,0.193701 -21.5386,-7.68308 -23.8961,-19.1788l23.511 -4.82126 -23.4378 4.78111c-7.56379,-36.8882 -27.8988,-69.2941 -56.1426,-92.3552 -27.6768,-22.598 -63.0036,-36.1925 -101.389,-36.1925l-333.955 0c-44.1697,0 -84.3426,18.0874 -113.482,47.2264 -29.139,29.139 -47.2264,69.3119 -47.2264,113.482l0 119.294 -48 0 0 -119.294c0,-57.4205 23.4732,-109.604 61.2886,-147.419 37.8154,-37.8154 89.9989,-61.2886 147.419,-61.2886l333.955 0c49.7327,0 95.582,17.6788 131.576,47.0681 31.6429,25.8355 55.6335,60.7583 67.9158,100.699z"/>
   <path id="_475106952" class="fil1" d="M1130.5 663.161l320.916 0c45.4748,0 86.7993,18.5858 116.743,48.5304 18.5256,18.5244 32.7047,41.4083 40.8225,66.9308 4.81654,15.1453 15.5681,61.0205 16.363,79.8934 -1.87914,-2.04095 -3.79961,-4.04882 -5.76969,-6.0189 -15.1228,-15.1228 -32.3693,-27.5634 -51.0485,-37.0111 -8.40001,-24.3981 -16.0583,-51.6095 -34.3051,-69.8564 -21.2658,-21.2669 -50.5807,-34.4681 -82.8048,-34.4681l-338.996 0c-20.4343,0.341339 -18.3591,-8.40946 -25.539,-26.6067 -8.09528,-31.2189 -26.1189,-58.5745 -50.4709,-78.4583 -25.7256,-21.0036 -58.5615,-33.639 -94.2461,-33.639l-313.473 0c-41.054,0 -78.3957,16.813 -105.481,43.8992 -9.36969,9.36851 -40.4776,55.6276 -47.8772,68.3599 -13.1622,8.67166 -25.5213,18.7228 -36.8599,30.0614 -11.0634,11.0634 -20.9008,23.0965 -29.4272,35.8996 -0.129921,-11.0847 23.2347,-73.9371 33.8799,-94.4363 15.5976,-30.0402 37.93,-65.4071 46.3465,-73.8225 35.7614,-35.7626 85.1138,-57.9615 139.419,-57.9615l313.473 0c47.0315,0 90.3898,16.7197 124.433,44.5146 29.6481,24.2091 52.193,56.8536 63.9024,94.1894z"/>
   <path id="_475106928" class="fil0" d="M703.999 1265.46l640.001 0c13.2543,0 24,10.7457 24,24l0 128c0,13.2543 -10.7457,24 -24,24l-640.001 0c-13.2543,0 -24,-10.7457 -24,-24l0 -128c0,-13.2543 10.7457,-24 24,-24zm616.001 48l-592.001 0 0 79.9997 592.001 0 0 -79.9997z"/>
  </g>
 </g>
 <rect class="fil2" width="2048" height="2048"/>
</svg>
