<svg width="82" height="25" viewBox="0 0 82 25" fill="none" xmlns="http://www.w3.org/2000/svg">
<path d="M3.0957 23.3828C2.48633 23.3984 1.98633 23.2891 1.5957 23.0547C1.18945 22.8203 0.876953 22.4766 0.658203 22.0234C0.423828 21.5859 0.275391 21.0469 0.212891 20.4062C0.150391 19.7812 0.150391 19.0938 0.212891 18.3438C0.291016 17.7656 0.431641 17.1641 0.634766 16.5391C0.806641 16.0078 1.07227 15.4219 1.43164 14.7812C1.77539 14.1406 2.24414 13.5156 2.83789 12.9062C2.96289 12.9375 3.06445 12.9766 3.14258 13.0234C3.2207 13.0547 3.2832 13.0938 3.33008 13.1406C3.37695 13.2031 3.4082 13.2578 3.42383 13.3047C3.45508 13.4766 3.4082 13.6719 3.2832 13.8906C3.1582 14.1094 3.0332 14.3438 2.9082 14.5938C2.56445 15.3125 2.30664 15.9922 2.13477 16.6328C1.96289 17.2734 1.85352 17.8672 1.80664 18.4141C1.77539 18.8828 1.7832 19.3047 1.83008 19.6797C1.86133 20.0703 1.91602 20.3984 1.99414 20.6641C2.07227 20.9453 2.1582 21.1562 2.25195 21.2969C2.3457 21.4531 2.43164 21.5312 2.50977 21.5312C2.58789 21.5312 2.66602 21.4766 2.74414 21.3672C2.83789 21.2578 2.92383 21.125 3.00195 20.9688C3.0957 20.8125 3.20508 20.5703 3.33008 20.2422C3.45508 19.9297 3.58789 19.5625 3.72852 19.1406C3.86914 18.7188 4.00195 18.2656 4.12695 17.7812C4.26758 17.2812 4.39258 16.7812 4.50195 16.2812C4.7207 15.2812 4.95508 14.1562 5.20508 12.9062C5.45508 11.6406 5.82227 10.3203 6.30664 8.94531C6.46289 8.36719 6.6582 7.73438 6.89258 7.04688C7.08008 6.45312 7.31445 5.76562 7.5957 4.98438C7.89258 4.1875 8.22852 3.32813 8.60352 2.40625C8.60352 2.32812 8.66602 2.25781 8.79102 2.19531C8.93164 2.11719 9.08789 2.03906 9.25977 1.96094C9.44727 1.88281 9.6582 1.80469 9.89258 1.72656C10.2051 1.61719 10.4473 1.55469 10.6191 1.53906C10.8066 1.52344 10.9473 1.54688 11.041 1.60938C11.1348 1.67187 11.1973 1.75781 11.2285 1.86719C11.2598 1.96094 11.2754 2.07031 11.2754 2.19531C11.3066 2.71094 11.3223 3.19531 11.3223 3.64844C11.3379 4.10156 11.3535 4.5 11.3691 4.84375C11.3848 5.25 11.3926 5.61719 11.3926 5.94531C11.4082 6.38281 11.3848 6.96875 11.3223 7.70312C11.2598 8.42188 11.1895 9.17969 11.1113 9.97656C11.0488 10.7734 10.9863 11.5547 10.9238 12.3203C10.877 13.0703 10.8691 13.6953 10.9004 14.1953C10.9004 14.4609 10.9082 14.7109 10.9238 14.9453C10.9551 15.1641 10.9863 15.3828 11.0176 15.6016C11.2207 15.0391 11.4473 14.4531 11.6973 13.8438C11.9473 13.2188 12.1973 12.625 12.4473 12.0625C12.6973 11.4844 12.9316 10.9531 13.1504 10.4688C13.3691 9.96875 13.541 9.55469 13.666 9.22656C13.8535 8.78906 14.1035 8.23438 14.416 7.5625C14.7285 6.89062 15.041 6.21875 15.3535 5.54688C15.6816 4.875 15.9785 4.25781 16.2441 3.69531C16.5254 3.13281 16.7285 2.74219 16.8535 2.52344C16.9473 2.36719 17.1035 2.22656 17.3223 2.10156C17.5566 1.97656 17.7988 1.86719 18.0488 1.77344C18.3145 1.67969 18.5566 1.61719 18.7754 1.58594C19.0098 1.53906 19.166 1.53125 19.2441 1.5625C19.4473 1.60938 19.5879 1.67187 19.666 1.75C19.7598 1.82813 19.8145 1.88281 19.8301 1.91406C19.8613 1.97656 19.8848 2.08594 19.9004 2.24219C19.916 2.38281 19.9082 2.60937 19.877 2.92188C19.8457 3.29688 19.752 3.86719 19.5957 4.63281C19.4551 5.39844 19.2754 6.27344 19.0566 7.25781C18.8535 8.22656 18.627 9.26562 18.377 10.375C18.1426 11.4844 17.916 12.5781 17.6973 13.6562C17.4785 14.7188 17.2832 15.7188 17.1113 16.6562C16.9551 17.5938 16.8535 18.3828 16.8066 19.0234C16.7754 19.7422 16.8223 20.375 16.9473 20.9219C16.9941 21.1562 17.0645 21.3828 17.1582 21.6016C17.252 21.8203 17.377 22.0078 17.5332 22.1641C17.6895 22.3359 17.877 22.4609 18.0957 22.5391C18.3145 22.6172 18.5723 22.6406 18.8691 22.6094C18.4785 22.875 18.0957 23.0703 17.7207 23.1953C17.3457 23.3203 16.9785 23.3828 16.6191 23.3828C16.2285 23.3984 15.8848 23.3359 15.5879 23.1953C15.291 23.0703 15.041 22.8828 14.8379 22.6328C14.6348 22.3984 14.4863 22.1094 14.3926 21.7656C14.2988 21.4375 14.2676 21.0703 14.2988 20.6641C14.3301 20.2891 14.4316 19.6719 14.6035 18.8125C14.7754 17.9531 14.9785 16.9844 15.2129 15.9062C15.4629 14.8125 15.7285 13.6797 16.0098 12.5078C16.3066 11.3203 16.5801 10.2109 16.8301 9.17969C17.0957 8.13281 17.3223 7.23438 17.5098 6.48438C17.6973 5.73438 17.8145 5.24219 17.8613 5.00781C17.8926 4.82031 17.916 4.64844 17.9316 4.49219C17.9629 4.32031 17.9941 4.17188 18.0254 4.04688C17.8691 4.35938 17.6738 4.73438 17.4395 5.17188C17.2207 5.60938 16.9863 6.07812 16.7363 6.57812C16.4863 7.07812 16.2285 7.60156 15.9629 8.14844C15.7129 8.67969 15.4707 9.19531 15.2363 9.69531C14.8457 10.5078 14.4629 11.3438 14.0879 12.2031C13.7129 13.0469 13.377 13.8516 13.0801 14.6172C12.7832 15.3828 12.5332 16.0703 12.3301 16.6797C12.1426 17.2891 12.0332 17.7578 12.002 18.0859V18.4141C12.002 18.5078 12.002 18.6172 12.002 18.7422C12.0176 18.8672 12.041 18.9844 12.0723 19.0938L11.1348 19.8203C10.9941 19.8672 10.8691 19.9062 10.7598 19.9375C10.666 19.9688 10.5723 19.9844 10.4785 19.9844C10.1191 19.9844 9.8457 19.7969 9.6582 19.4219C9.4707 19.0781 9.29883 18.4062 9.14258 17.4062C8.98633 16.4062 8.93945 15.1797 9.00195 13.7266C9.0332 13.0078 9.08008 12.2812 9.14258 11.5469C9.2207 10.8125 9.29102 10.1094 9.35352 9.4375C9.43164 8.76562 9.50195 8.14062 9.56445 7.5625C9.62695 6.96875 9.6582 6.46094 9.6582 6.03906C9.67383 5.72656 9.66602 5.44531 9.63477 5.19531C9.60352 4.92969 9.57227 4.6875 9.54102 4.46875C9.40039 4.82813 9.24414 5.32031 9.07227 5.94531C8.90039 6.55469 8.7207 7.23438 8.5332 7.98438C8.3457 8.73438 8.15039 9.52344 7.94727 10.3516C7.75977 11.1797 7.57227 11.9766 7.38477 12.7422C7.21289 13.5078 7.04883 14.2188 6.89258 14.875C6.73633 15.5156 6.61133 16.0312 6.51758 16.4219C6.36133 17.0469 6.20508 17.7578 6.04883 18.5547C5.89258 19.3516 5.69727 20.1016 5.46289 20.8047C5.22852 21.5234 4.92383 22.125 4.54883 22.6094C4.17383 23.1094 3.68945 23.3672 3.0957 23.3828ZM28.7598 8.24219C28.7441 8.19531 28.791 8.07812 28.9004 7.89062C29.0098 7.6875 29.127 7.44531 29.252 7.16406C29.3926 6.86719 29.5254 6.53906 29.6504 6.17969C29.791 5.80469 29.8848 5.42188 29.9316 5.03125C29.9941 4.64063 29.9941 4.25 29.9316 3.85938C29.8691 3.46875 29.7051 3.09375 29.4395 2.73438C29.2832 2.54688 29.0488 2.44531 28.7363 2.42969C28.4395 2.39844 28.0957 2.44531 27.7051 2.57031C27.3301 2.67969 26.9316 2.85938 26.5098 3.10938C26.1035 3.34375 25.7285 3.625 25.3848 3.95312C25.041 4.26563 24.7441 4.61719 24.4941 5.00781C24.2598 5.39844 24.127 5.79688 24.0957 6.20312C24.0645 6.53125 24.0723 6.83594 24.1191 7.11719C24.1816 7.39844 24.2598 7.65625 24.3535 7.89062C24.4473 8.125 24.5488 8.34375 24.6582 8.54688C24.7676 8.75 24.8691 8.92969 24.9629 9.08594C25.0879 9.30469 25.2832 9.54688 25.5488 9.8125C25.8145 10.0781 26.1035 10.3828 26.416 10.7266C26.7285 11.0547 27.041 11.4297 27.3535 11.8516C27.666 12.2734 27.9395 12.75 28.1738 13.2812C28.4082 13.8125 28.5723 14.4062 28.666 15.0625C28.7598 15.7188 28.752 16.4453 28.6426 17.2422C28.4707 18.3984 28.1973 19.3594 27.8223 20.125C27.4473 20.9062 27.0332 21.5312 26.5801 22C26.1426 22.4688 25.6973 22.8047 25.2441 23.0078C24.791 23.2266 24.416 23.3672 24.1191 23.4297C23.8848 23.4766 23.6035 23.5156 23.2754 23.5469C22.9629 23.5938 22.627 23.5859 22.2676 23.5234C21.9238 23.4766 21.5723 23.3672 21.2129 23.1953C20.8535 23.0391 20.5332 22.7891 20.252 22.4453C19.9238 22.0547 19.666 21.6328 19.4785 21.1797C19.3066 20.7891 19.1816 20.3359 19.1035 19.8203C19.0098 19.3203 19.0488 18.7969 19.2207 18.25C19.3457 18.1094 19.4785 17.9844 19.6191 17.875C19.7598 17.7656 19.9004 17.6719 20.041 17.5938C20.1973 17.5 20.3613 17.4141 20.5332 17.3359C20.7363 17.2734 20.9395 17.2188 21.1426 17.1719C21.3145 17.1406 21.4941 17.125 21.6816 17.125C21.8848 17.1094 22.0723 17.1328 22.2441 17.1953C22.0098 17.4609 21.8457 17.7109 21.752 17.9453C21.6895 18.0703 21.6426 18.1797 21.6113 18.2734C21.5488 18.5703 21.5254 18.9219 21.541 19.3281C21.5723 19.75 21.6582 20.1484 21.7988 20.5234C21.9551 20.9141 22.1738 21.2422 22.4551 21.5078C22.7363 21.7891 23.1113 21.9375 23.5801 21.9531C24.7207 21.9844 25.6895 21.0938 26.4863 19.2812C26.752 18.7188 26.8848 18.1484 26.8848 17.5703C26.9004 16.9922 26.8301 16.4375 26.6738 15.9062C26.5332 15.375 26.3379 14.8828 26.0879 14.4297C25.8535 13.9609 25.6113 13.5625 25.3613 13.2344C25.1113 12.9062 24.8066 12.5547 24.4473 12.1797C24.1035 11.7891 23.7598 11.3672 23.416 10.9141C23.0723 10.4609 22.7598 9.96875 22.4785 9.4375C22.2129 8.90625 22.0332 8.32812 21.9395 7.70312C21.8145 6.82812 21.8926 6.03125 22.1738 5.3125C22.4707 4.57812 22.8613 3.9375 23.3457 3.39062C23.8457 2.84375 24.3848 2.39844 24.9629 2.05469C25.5566 1.71094 26.0801 1.49219 26.5332 1.39844C29.0488 0.898437 30.6973 1.32031 31.4785 2.66406C31.8066 3.17969 31.9863 3.72656 32.0176 4.30469C32.0488 4.88281 32.0098 5.42188 31.9004 5.92188C31.8066 6.40625 31.6816 6.82031 31.5254 7.16406C31.3848 7.49219 31.291 7.67188 31.2441 7.70312C31.1504 7.79688 31.002 7.89844 30.7988 8.00781C30.5957 8.11719 30.2676 8.21875 29.8145 8.3125C29.6895 8.34375 29.5645 8.35938 29.4395 8.35938C29.3301 8.35938 29.2129 8.35156 29.0879 8.33594C28.9629 8.32031 28.8535 8.28906 28.7598 8.24219ZM41.6973 1.35156C42.2441 1.35156 42.6895 1.50781 43.0332 1.82031C43.3926 2.11719 43.5488 2.66406 43.502 3.46094C43.4863 3.72656 43.4238 4.22656 43.3145 4.96094C43.2051 5.67969 43.0723 6.53125 42.916 7.51562C42.7598 8.5 42.5801 9.5625 42.377 10.7031C42.1895 11.8281 42.0098 12.9297 41.8379 14.0078H42.3301C42.4863 14.0078 42.6582 14 42.8457 13.9844C43.0332 13.9688 43.2285 13.9453 43.4316 13.9141C43.3535 14.1016 43.2676 14.2812 43.1738 14.4531C43.0801 14.6094 42.9863 14.75 42.8926 14.875C42.7832 15.0156 42.6738 15.1406 42.5645 15.25C42.4238 15.4219 42.2598 15.5781 42.0723 15.7188C41.8848 15.8438 41.7051 15.9453 41.5332 16.0234C41.4238 16.7891 41.3301 17.4766 41.252 18.0859C41.1895 18.6797 41.1504 19.1719 41.1348 19.5625C41.1035 20.1562 41.1191 20.7109 41.1816 21.2266C41.2285 21.6797 41.3223 22.1406 41.4629 22.6094C41.6035 23.0781 41.8301 23.4531 42.1426 23.7344L39.4238 24.625C39.2363 24.3594 39.0957 24 39.002 23.5469C38.9238 23.1094 38.8691 22.6719 38.8379 22.2344C38.791 21.7188 38.7832 21.1875 38.8145 20.6406C38.8457 20.0938 38.9316 19.3828 39.0723 18.5078C39.2129 17.6172 39.3691 16.6484 39.541 15.6016C39.2285 15.5078 38.8848 15.4297 38.5098 15.3672C38.1504 15.3047 37.7441 15.2734 37.291 15.2734C36.8848 15.2734 36.4551 15.2891 36.002 15.3203C35.5645 15.3516 35.127 15.3906 34.6895 15.4375C34.502 16.125 34.3145 16.8516 34.127 17.6172C33.9238 18.4453 33.7363 19.1484 33.5645 19.7266C33.4082 20.3203 33.252 20.8125 33.0957 21.2031C32.9551 21.5938 32.8066 21.9062 32.6504 22.1406C32.5098 22.375 32.3535 22.5469 32.1816 22.6562C31.9941 22.75 31.7598 22.8359 31.4785 22.9141C31.2129 22.9922 30.877 23.0703 30.4707 23.1484C30.0645 23.2266 29.541 23.2891 28.9004 23.3359C29.1348 23.0547 29.3379 22.7969 29.5098 22.5625C29.6816 22.3281 29.8535 22.0391 30.0254 21.6953C30.1973 21.3516 30.3926 20.9062 30.6113 20.3594C30.8145 19.8281 31.0801 19.125 31.4082 18.25C31.5488 17.8906 31.6895 17.5 31.8301 17.0781C31.9863 16.6406 32.1504 16.1953 32.3223 15.7422C31.7598 15.8203 31.2832 15.8906 30.8926 15.9531C30.502 16.0156 30.2676 16.0625 30.1895 16.0938C30.0645 16.1094 29.9629 16.1094 29.8848 16.0938C29.6816 16.0625 29.5723 15.9609 29.5566 15.7891C29.5723 15.5703 29.6504 15.4219 29.791 15.3438C29.916 15.2656 30.1113 15.1719 30.377 15.0625C30.502 15 30.791 14.8906 31.2441 14.7344C31.6816 14.5625 32.2207 14.3828 32.8613 14.1953C33.0957 13.5391 33.3223 12.8906 33.541 12.25C33.7754 11.5938 34.002 10.9688 34.2207 10.375C34.4395 9.78125 34.6504 9.22656 34.8535 8.71094C35.0566 8.17969 35.2441 7.72656 35.416 7.35156C35.6816 6.77344 36.0176 6.14062 36.4238 5.45312C36.8457 4.75 37.3223 4.09375 37.8535 3.48438C38.4004 2.875 38.9941 2.36719 39.6348 1.96094C40.291 1.55469 40.9785 1.35156 41.6973 1.35156ZM41.4395 6.22656C41.6113 5.52344 41.7285 4.94531 41.791 4.49219C41.8535 4.03906 41.877 3.6875 41.8613 3.4375C41.8457 3.17187 41.791 2.99219 41.6973 2.89844C41.6191 2.78906 41.5176 2.73438 41.3926 2.73438C41.1895 2.73438 40.9395 2.8125 40.6426 2.96875C40.3457 3.125 40.0332 3.35156 39.7051 3.64844C39.377 3.92969 39.0488 4.28906 38.7207 4.72656C38.4082 5.14844 38.127 5.63281 37.877 6.17969C37.5176 6.99219 37.1113 7.99219 36.6582 9.17969C36.2051 10.3516 35.7129 11.8516 35.1816 13.6797C35.4941 13.6328 35.7988 13.5938 36.0957 13.5625C36.4082 13.5312 36.7129 13.5156 37.0098 13.5156C37.541 13.5156 38.0488 13.5391 38.5332 13.5859C39.0176 13.6172 39.4629 13.6562 39.8691 13.7031C40.0098 12.9531 40.1504 12.2188 40.291 11.5C40.4473 10.7656 40.5957 10.0703 40.7363 9.41406C40.877 8.75781 41.002 8.15625 41.1113 7.60938C41.2363 7.0625 41.3457 6.60156 41.4395 6.22656Z" fill="#FC7341"/>
<path d="M47.8965 14.9277V15.8184H45.0371V14.9277H47.8965ZM59.0732 12.6279V17.3125C58.915 17.5469 58.6631 17.8105 58.3174 18.1035C57.9717 18.3906 57.4941 18.6426 56.8848 18.8594C56.2812 19.0703 55.502 19.1758 54.5469 19.1758C53.7676 19.1758 53.0498 19.041 52.3936 18.7715C51.7432 18.4961 51.1777 18.0977 50.6973 17.5762C50.2227 17.0488 49.8535 16.4102 49.5898 15.6602C49.332 14.9043 49.2031 14.0488 49.2031 13.0938V12.1006C49.2031 11.1455 49.3145 10.293 49.5371 9.54297C49.7656 8.79297 50.0996 8.15723 50.5391 7.63574C50.9785 7.1084 51.5176 6.70996 52.1562 6.44043C52.7949 6.16504 53.5273 6.02734 54.3535 6.02734C55.332 6.02734 56.1494 6.19727 56.8057 6.53711C57.4678 6.87109 57.9834 7.33398 58.3525 7.92578C58.7275 8.51758 58.9678 9.19141 59.0732 9.94727H57.377C57.3008 9.48438 57.1484 9.0625 56.9199 8.68164C56.6973 8.30078 56.3779 7.99609 55.9619 7.76758C55.5459 7.5332 55.0098 7.41602 54.3535 7.41602C53.7617 7.41602 53.249 7.52441 52.8154 7.74121C52.3818 7.95801 52.0244 8.26855 51.7432 8.67285C51.4619 9.07715 51.251 9.56641 51.1104 10.1406C50.9756 10.7148 50.9082 11.3623 50.9082 12.083V13.0938C50.9082 13.832 50.9932 14.4912 51.1631 15.0713C51.3389 15.6514 51.5879 16.1465 51.9102 16.5566C52.2324 16.9609 52.6162 17.2686 53.0615 17.4795C53.5127 17.6904 54.0107 17.7959 54.5557 17.7959C55.1592 17.7959 55.6484 17.7461 56.0234 17.6465C56.3984 17.541 56.6914 17.418 56.9023 17.2773C57.1133 17.1309 57.2744 16.9932 57.3857 16.8643V13.999H54.4238V12.6279H59.0732ZM70.0156 17.6201V19H63.2393V17.6201H70.0156ZM63.582 6.20312V19H61.8857V6.20312H63.582ZM69.1191 11.7051V13.085H63.2393V11.7051H69.1191ZM69.9277 6.20312V7.5918H63.2393V6.20312H69.9277ZM75.5791 19H72.9072L72.9248 17.6201H75.5791C76.4932 17.6201 77.2549 17.4297 77.8643 17.0488C78.4736 16.6621 78.9307 16.123 79.2354 15.4316C79.5459 14.7344 79.7012 13.9199 79.7012 12.9883V12.2061C79.7012 11.4736 79.6133 10.8232 79.4375 10.2549C79.2617 9.68066 79.0039 9.19727 78.6641 8.80469C78.3242 8.40625 77.9082 8.10449 77.416 7.89941C76.9297 7.69434 76.3701 7.5918 75.7373 7.5918H72.8545V6.20312H75.7373C76.5752 6.20312 77.3398 6.34375 78.0312 6.625C78.7227 6.90039 79.3174 7.30176 79.8154 7.8291C80.3193 8.35059 80.7061 8.9834 80.9756 9.72754C81.2451 10.4658 81.3799 11.2979 81.3799 12.2236V12.9883C81.3799 13.9141 81.2451 14.749 80.9756 15.4932C80.7061 16.2314 80.3164 16.8613 79.8066 17.3828C79.3027 17.9043 78.6934 18.3057 77.9785 18.5869C77.2695 18.8623 76.4697 19 75.5791 19ZM73.8125 6.20312V19H72.1162V6.20312H73.8125Z" fill="black"/>
</svg>
