<?xml version="1.0" encoding="UTF-8"?>
<!DOCTYPE svg PUBLIC "-//W3C//DTD SVG 1.1//EN" "http://www.w3.org/Graphics/SVG/1.1/DTD/svg11.dtd">
<!-- Creator: CorelDRAW -->
<svg xmlns="http://www.w3.org/2000/svg" xml:space="preserve" width="62px" height="62px" style="shape-rendering:geometricPrecision; text-rendering:geometricPrecision; image-rendering:optimizeQuality; fill-rule:evenodd; clip-rule:evenodd"
viewBox="0 0 2048 2048"
 xmlns:xlink="http://www.w3.org/1999/xlink">
 <defs>
  <style type="text/css">
   <![CDATA[
    .fil2 {fill:none}
    .fil0 {fill:#212121;fill-rule:nonzero}
    .fil1 {fill:#FC7341;fill-rule:nonzero}
   ]]>
  </style>
 </defs>
 <g id="Layer_x0020_1">
  <metadata id="CorelCorpID_0Corel-Layer"/>
  <path class="fil0" d="M324.527 255.999l925.253 0c6.67914,0 12.7193,2.72953 17.0705,7.13268l240.914 240.873 0.0011811 -0.00236221c4.6878,4.68662 7.03111,10.8295 7.03111,16.9725l0 845.45 -48 -48 0 -787.511 -226.954 -226.915 -891.316 0 0 1440 1118.27 0 0 -145.789 48 48 0 121.789c0,13.2543 -10.7457,24 -24,24l-1166.27 0c-13.2543,0 -24,-10.7457 -24,-24l0 -1488c0,-13.2543 10.7457,-24 24,-24z"/>
  <path class="fil0" d="M1490.8 544.533c13.2543,0 24,-10.7457 24,-24 0,-13.2543 -10.7457,-24 -24,-24l-217.297 0 0 -216.534c0,-13.2543 -10.7457,-24 -24,-24 -13.2543,0 -24,10.7457 -24,24l0 240.534c0,13.2543 10.7457,24 24,24l241.297 0z"/>
  <path class="fil0" d="M848.192 631.05l206.593 0c32.9965,10.9276 64.1304,27.0874 92.2737,48l-391.139 0c28.1433,-20.9114 59.2772,-37.0725 92.2725,-48z"/>
  <path class="fil0" d="M626.539 894.791l622.96 0 0 48 -626.484 0c0.0106299,-16.187 1.2,-32.2217 3.52441,-48z"/>
  <path class="fil0" d="M703.596 1158.53l495.779 0c-4.99489,5.73662 -10.2,11.3244 -15.6225,16.7469 -11.3599,11.3599 -23.4378,21.789 -36.124,31.2532l-392.286 0c-12.6862,-9.46418 -24.763,-19.8933 -36.1229,-31.2532 -5.42245,-5.42245 -10.6287,-11.0102 -15.6236,-16.7469z"/>
  <polygon class="fil0" points="565.824,1422.27 1249.5,1422.27 1249.5,1470.27 565.824,1470.27 "/>
  <g id="_460819112">
   <path id="_460819232" class="fil1" d="M668.312 659.838c78.1335,-78.1347 180.63,-117.204 283.173,-117.206 102.542,-0.0011811 205.038,39.0674 283.174,117.202 78.1961,78.1985 117.295,180.689 117.295,283.175 0,102.488 -39.0981,204.977 -117.294,283.174 -78.1985,78.1973 -180.689,117.298 -283.175,117.298 -102.487,0 -204.977,-39.1004 -283.173,-117.298l-0.00354331 -0.00354331c-78.1961,-78.1961 -117.294,-180.684 -117.294,-283.17 0,-102.484 39.0992,-204.973 117.294,-283.17l0.00354331 -0.00354331zm283.173 -69.3922c-90.1465,0 -180.352,34.4457 -249.235,103.33l-0.00354331 0.00354331c-68.8193,68.8205 -103.232,159.027 -103.232,249.232 0,90.2056 34.4103,180.41 103.232,249.232l0.00354331 0.00354331c68.8217,68.8229 159.028,103.236 249.235,103.236 90.2068,0 180.414,-34.4126 249.238,-103.236 68.8205,-68.8217 103.232,-159.028 103.232,-249.236 0,-90.2068 -34.4126,-180.415 -103.233,-249.238 -68.8855,-68.8843 -159.089,-103.326 -249.236,-103.326z"/>
   <path id="_460818920" class="fil1" d="M1268.72 1154.29c-9.37087,-9.37087 -24.5669,-9.37087 -33.9378,0 -9.37087,9.37087 -9.37087,24.5669 0,33.9378l454.75 454.75 -38.0764 38.0776 -454.752 -454.752c-9.37087,-9.37087 -24.5669,-9.37087 -33.9378,0 -9.37087,9.37087 -9.37087,24.5669 0,33.9378l471.59 471.59 0.129921 0.133465c9.37205,9.37205 24.5693,9.37087 33.9414,-0.0011811l-0.00236221 -0.0011811 71.9268 -71.928 0.0885827 -0.0862205c9.37205,-9.37205 9.37205,-24.5681 0,-33.9402l-0.0011811 0.0011811 -471.718 -471.718z"/>
  </g>
 </g>
 <rect class="fil2" width="2048" height="2048"/>
</svg>
